<svg xmlns="http://www.w3.org/2000/svg" width="120" height="120" viewBox="0 0 120 120" fill="none">
  <defs>
    <linearGradient id="g" x1="18" y1="16" x2="102" y2="106" gradientUnits="userSpaceOnUse">
      <stop stop-color="#FFB3D1"/>
      <stop offset="0.45" stop-color="#C62B69"/>
      <stop offset="1" stop-color="#3B0A22"/>
    </linearGradient>
    <filter id="s" x="-20%" y="-20%" width="140%" height="140%">
      <feDropShadow dx="0" dy="10" stdDeviation="10" flood-color="#3B0A22" flood-opacity="0.18"/>
    </filter>
  </defs>
  <g filter="url(#s)">
    <path d="M60 103.5C60 103.5 22 79.4 22 52.8C22 37.5 33.1 26 47.6 26C54.9 26 61.4 29.2 65.8 34.2C70.2 29.2 76.7 26 84 26C98.5 26 109.6 37.5 109.6 52.8C109.6 79.4 71.6 103.5 71.6 103.5C67.9 105.7 64.2 107 60 107C55.8 107 52.1 105.7 48.4 103.5Z" fill="url(#g)"/>
    <path d="M33 61.2h11.8l6.2-10.7 8.2 19.2 7.6-16.1 5.2 7.6H87" stroke="rgba(255,255,255,0.92)" stroke-width="4.2" stroke-linecap="round" stroke-linejoin="round"/>
    <circle cx="33" cy="61.2" r="4.2" fill="rgba(255,255,255,0.95)"/>
    <circle cx="87" cy="61.2" r="4.2" fill="rgba(255,255,255,0.95)"/>
  </g>
</svg>

